<?xml version="1.0" encoding="UTF-8"?><svg xmlns="http://www.w3.org/2000/svg" xmlns:xlink="http://www.w3.org/1999/xlink" height="193.6" preserveAspectRatio="xMidYMid meet" version="1.0" viewBox="31.2 31.2 193.6 193.6" width="193.6" zoomAndPan="magnify"><g fill="#100f0d" id="change1_1"><path d="M 128 43.800781 C 81.570312 43.800781 43.800781 81.570312 43.800781 128 C 43.800781 174.429688 81.570312 212.203125 128 212.203125 C 174.429688 212.203125 212.199219 174.429688 212.199219 128 C 212.199219 81.570312 174.429688 43.800781 128 43.800781 Z M 128 224.816406 C 114.933594 224.816406 102.253906 222.257812 90.3125 217.207031 C 78.78125 212.328125 68.429688 205.347656 59.539062 196.460938 C 50.652344 187.570312 43.671875 177.21875 38.792969 165.6875 C 33.746094 153.746094 31.183594 141.066406 31.183594 128 C 31.183594 114.933594 33.746094 102.253906 38.792969 90.3125 C 43.671875 78.78125 50.652344 68.429688 59.539062 59.539062 C 68.429688 50.652344 78.78125 43.671875 90.3125 38.796875 C 102.253906 33.746094 114.933594 31.183594 128 31.183594 C 141.066406 31.183594 153.746094 33.746094 165.6875 38.796875 C 177.21875 43.671875 187.570312 50.652344 196.460938 59.539062 C 205.347656 68.429688 212.328125 78.78125 217.207031 90.3125 C 222.253906 102.253906 224.816406 114.933594 224.816406 128 C 224.816406 141.066406 222.253906 153.746094 217.207031 165.6875 C 212.328125 177.214844 205.347656 187.570312 196.460938 196.460938 C 187.570312 205.347656 177.21875 212.328125 165.6875 217.207031 C 153.746094 222.257812 141.066406 224.816406 128 224.816406" fill="inherit"/><path d="M 130.445312 67.621094 L 125.554688 67.621094 C 125.160156 67.621094 124.835938 67.296875 124.835938 66.902344 L 124.835938 51.875 C 124.835938 51.480469 125.160156 51.15625 125.554688 51.15625 L 130.445312 51.15625 C 130.839844 51.15625 131.164062 51.480469 131.164062 51.875 L 131.164062 66.902344 C 131.164062 67.296875 130.839844 67.621094 130.445312 67.621094" fill="inherit"/><path d="M 130.445312 204.84375 L 125.554688 204.84375 C 125.160156 204.84375 124.835938 204.519531 124.835938 204.125 L 124.835938 189.097656 C 124.835938 188.703125 125.160156 188.378906 125.554688 188.378906 L 130.445312 188.378906 C 130.839844 188.378906 131.164062 188.703125 131.164062 189.097656 L 131.164062 204.125 C 131.164062 204.519531 130.839844 204.84375 130.445312 204.84375" fill="inherit"/><path d="M 172.421875 87.035156 L 168.964844 83.578125 C 168.6875 83.296875 168.6875 82.839844 168.964844 82.5625 L 179.589844 71.9375 C 179.871094 71.65625 180.328125 71.65625 180.609375 71.9375 L 184.0625 75.390625 C 184.34375 75.671875 184.34375 76.128906 184.0625 76.410156 L 173.4375 87.035156 C 173.160156 87.3125 172.703125 87.3125 172.421875 87.035156" fill="inherit"/><path d="M 75.390625 184.0625 L 71.933594 180.609375 C 71.65625 180.328125 71.65625 179.871094 71.933594 179.589844 L 82.558594 168.964844 C 82.839844 168.6875 83.296875 168.6875 83.578125 168.964844 L 87.035156 172.421875 C 87.3125 172.703125 87.3125 173.160156 87.035156 173.4375 L 76.410156 184.0625 C 76.128906 184.34375 75.671875 184.34375 75.390625 184.0625" fill="inherit"/><path d="M 188.378906 130.445312 L 188.378906 125.554688 C 188.378906 125.160156 188.703125 124.835938 189.097656 124.835938 L 204.125 124.835938 C 204.519531 124.835938 204.84375 125.160156 204.84375 125.554688 L 204.84375 130.445312 C 204.84375 130.839844 204.519531 131.164062 204.125 131.164062 L 189.097656 131.164062 C 188.703125 131.164062 188.378906 130.839844 188.378906 130.445312" fill="inherit"/><path d="M 51.15625 130.445312 L 51.15625 125.554688 C 51.15625 125.160156 51.480469 124.835938 51.875 124.835938 L 66.902344 124.835938 C 67.296875 124.835938 67.621094 125.160156 67.621094 125.554688 L 67.621094 130.445312 C 67.621094 130.839844 67.296875 131.164062 66.902344 131.164062 L 51.875 131.164062 C 51.480469 131.164062 51.15625 130.839844 51.15625 130.445312" fill="inherit"/><path d="M 168.964844 172.421875 L 172.421875 168.964844 C 172.703125 168.6875 173.160156 168.6875 173.4375 168.964844 L 184.0625 179.589844 C 184.34375 179.871094 184.34375 180.328125 184.0625 180.609375 L 180.609375 184.0625 C 180.328125 184.34375 179.871094 184.34375 179.589844 184.0625 L 168.964844 173.4375 C 168.6875 173.160156 168.6875 172.703125 168.964844 172.421875" fill="inherit"/><path d="M 71.933594 75.390625 L 75.390625 71.9375 C 75.671875 71.65625 76.128906 71.65625 76.410156 71.9375 L 87.035156 82.5625 C 87.3125 82.839844 87.3125 83.296875 87.035156 83.578125 L 83.578125 87.035156 C 83.296875 87.3125 82.839844 87.3125 82.558594 87.035156 L 71.933594 76.410156 C 71.65625 76.128906 71.65625 75.671875 71.933594 75.390625" fill="inherit"/><path d="M 162.476562 154.378906 L 136.179688 128.082031 C 136.179688 128.054688 136.183594 128.027344 136.183594 128 C 136.183594 126.171875 135.582031 124.484375 134.570312 123.121094 L 134.570312 86.054688 C 134.570312 82.441406 131.613281 79.484375 128 79.484375 C 124.386719 79.484375 121.429688 82.441406 121.429688 86.054688 L 121.429688 123.121094 C 120.417969 124.484375 119.816406 126.171875 119.816406 128 C 119.816406 131.539062 122.066406 134.554688 125.214844 135.695312 L 153.1875 163.667969 C 155.742188 166.222656 159.921875 166.222656 162.476562 163.667969 C 165.03125 161.113281 165.03125 156.933594 162.476562 154.378906" fill="inherit"/></g></svg>