<?xml version="1.0" encoding="UTF-8"?><svg xmlns="http://www.w3.org/2000/svg" xmlns:xlink="http://www.w3.org/1999/xlink" clip-rule="evenodd" fill-rule="evenodd" height="153.1" image-rendering="optimizeQuality" preserveAspectRatio="xMidYMid meet" shape-rendering="geometricPrecision" text-rendering="geometricPrecision" version="1.0" viewBox="18.3 10.2 136.9 153.1" width="136.9" zoomAndPan="magnify"><g><g id="change1_1"><path d="M117.697 29.7114l-61.997 0c-0.9227,0 -1.6714,-0.7482 -1.6714,-1.6707 0.0006,-0.9228 0.7486,-1.6711 1.6711,-1.6711l61.9973 -0.0002c0.9219,0 1.6705,0.7487 1.6705,1.6713 0.0003,0.9223 -0.7486,1.671 -1.6705,1.6707zm19.217 133.526l-100.435 0c-10.0437,0 -18.2148,-8.1707 -18.2148,-18.2181l0.0004 -100.431c0,-10.0475 8.1703,-18.2181 18.2143,-18.2181l5.9776 -0.0002c0.9227,0 1.671,0.7487 1.671,1.6713 0.0006,0.9223 -0.7485,1.671 -1.6711,1.671l-5.9774 -0.0003c-8.2021,0 -14.8726,6.6742 -14.8726,14.8763l0.0007 100.431c0,8.2024 6.6695,14.8762 14.8718,14.8762l100.435 -0.0003c8.2021,0 14.8757,-6.6735 14.8757,-14.8757l0.0002 -100.431c0,-8.2025 -6.674,-14.876 -14.8762,-14.876l-5.974 -0.0003c-0.9259,0 -1.6711,-0.7482 -1.6711,-1.6707 0.0003,-0.9228 0.7449,-1.6711 1.6711,-1.6711l5.9743 -0.0002c10.0437,0 18.2179,8.1711 18.2179,18.2183l0.0005 100.431c0,10.0476 -8.1748,18.2184 -18.2184,18.2183z" fill="inherit"/><path d="M153.461 60.3131l-133.525 0c-0.922,0 -1.6712,-0.7484 -1.6712,-1.6709 0.0004,-0.923 0.7485,-1.6711 1.6711,-1.6711l133.525 -0.0003c0.9227,0 1.6711,0.7488 1.6711,1.6714 0.0005,0.9225 -0.7486,1.671 -1.6711,1.6709z" fill="inherit"/><path d="M103.475 45.0123l-33.5571 0c-0.9229,0 -1.6714,-0.7484 -1.6714,-1.6709 0.0005,-0.9227 0.7484,-1.6711 1.6712,-1.6711l33.5573 0c0.9228,0 1.6708,0.7485 1.6708,1.6711 0,0.9224 -0.7484,1.6711 -1.6708,1.6709z" fill="inherit"/><path d="M124.319 13.5023c-2.729,0 -4.9508,2.2212 -4.9508,4.9506l0.0003 16.8043c0,2.7296 2.2208,4.951 4.9502,4.951 2.7295,-0.0004 4.9506,-2.2211 4.9506,-4.9506l0.0003 -16.8048c0,-2.7294 -2.2214,-4.9504 -4.9506,-4.9505zm0 30.048c-4.5745,0 -8.293,-3.7216 -8.293,-8.2927l0.0001 -16.8048c0,-4.5745 3.7181,-8.2926 8.2926,-8.2926l0.0003 -0.0003c4.5715,0 8.2924,3.7185 8.2924,8.293l0.0006 16.8043c0,4.5715 -3.7222,8.2931 -8.293,8.2931z" fill="inherit"/><path d="M49.079 13.5023c-2.73,0 -4.9512,2.2212 -4.9512,4.9506l0.0006 16.8043c0,2.7296 2.2205,4.951 4.95,4.951 2.7296,-0.0004 4.9505,-2.2211 4.9505,-4.9506l0.0006 -16.8048c0,-2.7294 -2.2217,-4.9504 -4.9505,-4.9505zm0 30.048c-4.5746,0 -8.2934,-3.7216 -8.2934,-8.2927l0.0004 -16.8048c0,-4.5745 3.7178,-8.2926 8.2924,-8.2926 4.5712,-0.0003 8.2927,3.7182 8.2927,8.2927l0 16.8043c0,4.5715 -3.7216,8.2931 -8.2921,8.2931z" fill="inherit"/><path d="M34.4568 147.372l104.48 0 0 -71.4556 -104.48 0 0 71.4556zm106.152 3.3419l-107.822 0c-0.9228,0 -1.6716,-0.7481 -1.6716,-1.6706l0 -74.798c0,-0.9224 0.7484,-1.6709 1.671,-1.6709l107.823 -0.0003c0.9219,0 1.6703,0.7488 1.6703,1.6714l0.0004 74.7977c0,0.9223 -0.7488,1.6711 -1.6707,1.6707z" fill="inherit"/><path d="M86.6984 150.714c-0.9219,0 -1.6711,-0.7481 -1.6711,-1.6706l0.0003 -74.798c0,-0.9224 0.7482,-1.6709 1.6707,-1.6709 0.9228,-0.0003 1.6711,0.7485 1.6711,1.6711l0.0006 74.7977c0,0.9223 -0.7492,1.6711 -1.6716,1.6707z" fill="inherit"/><path d="M113.655 150.714c-0.9267,0 -1.6751,-0.7481 -1.6751,-1.6706l0.0004 -74.798c0,-0.9224 0.748,-1.6709 1.6741,-1.6709 0.9233,-0.0003 1.6711,0.7485 1.6711,1.6711l0.0003 74.7977c0,0.9223 -0.7488,1.6711 -1.6708,1.6707z" fill="inherit"/><path d="M59.7422 150.714c-0.9228,0 -1.6714,-0.7481 -1.6714,-1.6706l0.0006 -74.798c0,-0.9224 0.7478,-1.6709 1.6705,-1.6709 0.923,-0.0003 1.671,0.7485 1.671,1.6711l0.0001 74.7977c0,0.9223 -0.7486,1.6711 -1.6708,1.6707z" fill="inherit"/><path d="M140.608 101.554l-107.822 0c-0.9228,0 -1.6716,-0.7482 -1.6716,-1.6706 0,-0.923 0.7484,-1.6712 1.671,-1.6712l107.823 -0.0003c0.9219,0 1.6703,0.7488 1.6703,1.6715 0.0004,0.9221 -0.7484,1.6709 -1.6703,1.6706z" fill="inherit"/><path d="M140.608 125.081l-107.822 0c-0.9228,0 -1.6716,-0.7484 -1.6716,-1.671 0,-0.9264 0.7484,-1.671 1.671,-1.671l107.823 -0.0003c0.9219,0 1.6703,0.7452 1.6703,1.6713 0.0004,0.9226 -0.7484,1.671 -1.6703,1.671z" fill="inherit"/></g></g><path d="M0 0H173.397V173.397H0z" fill="none"/></svg>